<?xml version="1.0" encoding="UTF-8" standalone="no"?><!DOCTYPE svg PUBLIC "-//W3C//DTD SVG 1.1//EN" "http://www.w3.org/Graphics/SVG/1.1/DTD/svg11.dtd"><svg height="100px" viewBox="0 0 355 215" version="1.1" xmlns="http://www.w3.org/2000/svg" xmlns:xlink="http://www.w3.org/1999/xlink" xml:space="preserve" xmlns:serif="http://www.serif.com/" style="fill-rule:evenodd;clip-rule:evenodd;stroke-linecap:round;stroke-linejoin:round;stroke-miterlimit:10;"><path id="rect1" d="M354.167,30l0,154.167c0,16.557 -13.443,30 -30,30l-294.167,0c-16.557,0 -30,-13.443 -30,-30l0,-154.167c0,-16.557 13.443,-30 30,-30l294.167,0c16.557,0 30,13.443 30,30Z" style="fill:#212121;"/><path d="M354.167,30l0,154.167c0,16.557 -13.443,30 -30,30l-294.167,0c-16.557,0 -30,-13.443 -30,-30l0,-154.167c0,-16.557 13.443,-30 30,-30l294.167,0c16.557,0 30,13.443 30,30Zm-4.167,-0c-0,-14.258 -11.576,-25.833 -25.833,-25.833l-294.167,0c-14.258,0 -25.833,11.576 -25.833,25.833l0,154.167c0,14.258 11.576,25.833 25.833,25.833l294.167,0c14.258,0 25.833,-11.576 25.833,-25.833l-0,-154.167Z" style="fill:#ccc;"/><path id="path1" d="M48.7,119.769l0.169,0.625l0.169,0.624l0.169,0.622l0.169,0.621l0.169,0.619l0.169,0.618l0.169,0.616l0.169,0.614l0.169,0.612l0.169,0.61l0.169,0.609l0.169,0.607l0.169,0.604l0.169,0.602l0.169,0.6l0.169,0.598l0.169,0.596l0.169,0.593l0.169,0.591l0.169,0.588l0.169,0.586l0.169,0.583l0.169,0.581l0.169,0.578l0.169,0.575l0.169,0.572l0.169,0.569l0.169,0.566l0.169,0.563l0.169,0.56l0.169,0.557l0.169,0.554l0.169,0.551l0.169,0.548l0.169,0.544l0.169,0.541l0.169,0.537l0.169,0.534l0.169,0.53l0.169,0.527l0.169,0.523l0.169,0.519l0.169,0.515l0.169,0.512l0.169,0.508l0.169,0.504l0.169,0.5l0.169,0.496l0.169,0.492l0.169,0.488l0.169,0.483l0.169,0.479l0.169,0.475l0.169,0.471l0.169,0.466l0.169,0.462l0.169,0.457l0.169,0.453l0.169,0.448l0.169,0.444l0.169,0.439l0.169,0.434l0.169,0.429l0.169,0.425l0.169,0.42l0.169,0.415l0.169,0.41l0.169,0.405l0.169,0.4l0.169,0.395l0.169,0.39l0.169,0.385l0.169,0.38l0.169,0.374l0.169,0.369l0.169,0.364l0.169,0.359l0.169,0.353l0.169,0.348l0.169,0.342l0.169,0.337l0.169,0.331l0.169,0.326l0.169,0.32l0.169,0.315l0.169,0.309l0.169,0.303l0.169,0.298l0.169,0.292l0.169,0.286l0.169,0.28l0.169,0.275l0.169,0.269l0.169,0.263l0.169,0.257l0.169,0.251l0.169,0.245l0.169,0.239l0.169,0.233l0.169,0.227l0.169,0.221l0.169,0.215l0.169,0.209l0.169,0.203l0.169,0.197l0.169,0.191l0.169,0.184l0.169,0.178l0.169,0.172l0.169,0.166l0.169,0.16l0.169,0.153l0.169,0.147l0.169,0.141l0.169,0.134l0.169,0.128l0.169,0.122l0.169,0.116l0.169,0.109l0.169,0.103l0.169,0.096l0.169,0.09l0.169,0.084l0.169,0.077l0.169,0.071l0.169,0.064l0.169,0.058l0.169,0.052l0.169,0.045l0.169,0.039l0.169,0.032l0.169,0.026l0.169,0.02l0.169,0.013l0.169,0.007l0.169,0l0.169,-0.007l0.169,-0.013l0.169,-0.019l0.169,-0.026l0.169,-0.032l0.169,-0.039l0.169,-0.045l0.169,-0.051l0.169,-0.058l0.169,-0.064l0.169,-0.071l0.169,-0.077l0.169,-0.084l0.169,-0.09l0.169,-0.096l0.169,-0.103l0.169,-0.109l0.169,-0.115l0.169,-0.122l0.169,-0.128l0.169,-0.134l0.169,-0.141l0.169,-0.147l0.169,-0.153l0.169,-0.159l0.169,-0.166l0.169,-0.172l0.169,-0.178l0.169,-0.184l0.169,-0.19l0.169,-0.197l0.169,-0.203l0.169,-0.209l0.169,-0.215l0.169,-0.221l0.169,-0.227l0.169,-0.233l0.169,-0.239l0.169,-0.245l0.169,-0.251l0.169,-0.257l0.169,-0.263l0.169,-0.269l0.169,-0.275l0.169,-0.28l0.169,-0.286l0.169,-0.292l0.169,-0.298l0.169,-0.303l0.169,-0.309l0.169,-0.315l0.169,-0.32l0.169,-0.326l0.169,-0.331l0.169,-0.337l0.169,-0.342l0.169,-0.348l0.169,-0.353l0.169,-0.358l0.169,-0.364l0.169,-0.369l0.169,-0.374l0.169,-0.379l0.169,-0.385l0.169,-0.39l0.169,-0.395l0.169,-0.4l0.169,-0.405l0.169,-0.41l0.169,-0.415l0.169,-0.42l0.169,-0.425l0.169,-0.429l0.169,-0.434l0.169,-0.439l0.169,-0.443l0.169,-0.448l0.169,-0.453l0.169,-0.457l0.169,-0.462l0.169,-0.466l0.169,-0.47l0.169,-0.475l0.169,-0.479l0.169,-0.483l0.169,-0.488l0.169,-0.492l0.169,-0.496l0.169,-0.5l0.169,-0.504l0.169,-0.508l0.169,-0.512l0.169,-0.515l0.169,-0.519l0.169,-0.523l0.169,-0.527l0.169,-0.53l0.169,-0.534l0.169,-0.537l0.169,-0.541l0.169,-0.544l0.169,-0.548l0.169,-0.551l0.169,-0.554l0.169,-0.557l0.169,-0.56l0.169,-0.563l0.169,-0.566l0.169,-0.569l0.169,-0.572l0.169,-0.575l0.169,-0.578l0.169,-0.581l0.169,-0.583l0.169,-0.586l0.169,-0.588l0.169,-0.591l0.169,-0.593l0.169,-0.596l0.169,-0.598l0.169,-0.6l0.169,-0.602l0.169,-0.604l0.169,-0.606l0.169,-0.608l0.169,-0.61l0.169,-0.612l0.169,-0.614l0.169,-0.616l0.169,-0.617l0.169,-0.619l0.169,-0.621l0.169,-0.622l0.169,-0.624l0.169,-0.625l0.169,-0.626l0.169,-0.627l0.169,-0.629l0.169,-0.63l0.169,-0.631l0.169,-0.632l0.169,-0.633l0.169,-0.633l0.169,-0.634l0.169,-0.635l0.169,-0.636l0.169,-0.636l0.169,-0.637l0.169,-0.637l0.169,-0.638l0.169,-0.638l0.169,-0.638l0.169,-0.638l0.169,-0.639l0.169,-0.639l0.169,-0.639l0.169,-0.639l0.169,-0.638l0.169,-0.638l0.169,-0.638l0.169,-0.638l0.169,-0.637l0.169,-0.637l0.169,-0.636l0.169,-0.636l0.169,-0.635l0.169,-0.634l0.169,-0.634l0.169,-0.633l0.169,-0.632l0.169,-0.631l0.169,-0.63l0.169,-0.629l0.169,-0.627l0.169,-0.626l0.169,-0.625l0.169,-0.624l0.169,-0.622l0.169,-0.621l0.169,-0.619l0.169,-0.618l0.169,-0.616l0.169,-0.614l0.169,-0.612l0.169,-0.61l0.169,-0.609l0.169,-0.607l0.169,-0.605l0.169,-0.602l0.169,-0.6l0.169,-0.598l0.169,-0.596l0.169,-0.593l0.169,-0.591l0.169,-0.588l0.169,-0.586l0.169,-0.583l0.169,-0.581l0.169,-0.578l0.169,-0.575l0.169,-0.572l0.169,-0.569l0.169,-0.567l0.169,-0.564l0.169,-0.56l0.169,-0.557l0.169,-0.554l0.169,-0.551l0.169,-0.548l0.169,-0.544l0.169,-0.541l0.169,-0.537l0.169,-0.534l0.169,-0.53l0.169,-0.527l0.169,-0.523l0.169,-0.519l0.169,-0.516l0.169,-0.512l0.169,-0.508l0.169,-0.504l0.169,-0.5l0.169,-0.496l0.169,-0.492l0.169,-0.488l0.169,-0.483l0.169,-0.479l0.169,-0.475l0.169,-0.471l0.169,-0.466l0.169,-0.462l0.169,-0.457l0.169,-0.453l0.169,-0.448l0.169,-0.444l0.169,-0.439l0.169,-0.434l0.169,-0.429l0.169,-0.425l0.169,-0.42l0.169,-0.415l0.169,-0.41l0.169,-0.405l0.169,-0.4l0.169,-0.395l0.169,-0.39l0.169,-0.385l0.169,-0.38l0.169,-0.374l0.169,-0.369l0.169,-0.364l0.169,-0.359l0.169,-0.353l0.169,-0.348l0.169,-0.342l0.169,-0.337l0.169,-0.331l0.169,-0.326l0.169,-0.32l0.169,-0.315l0.169,-0.309l0.169,-0.303l0.169,-0.298l0.169,-0.292l0.169,-0.286l0.169,-0.281l0.169,-0.275l0.169,-0.269l0.169,-0.263l0.169,-0.257l0.169,-0.251l0.169,-0.245l0.169,-0.239l0.169,-0.233l0.169,-0.227l0.169,-0.221l0.169,-0.215l0.169,-0.209l0.169,-0.203l0.169,-0.197l0.169,-0.191l0.169,-0.185l0.169,-0.178l0.169,-0.172l0.169,-0.166l0.169,-0.16l0.169,-0.153l0.169,-0.147l0.169,-0.141l0.169,-0.135l0.169,-0.128l0.169,-0.122l0.169,-0.116l0.169,-0.109l0.169,-0.103l0.169,-0.097l0.169,-0.09l0.169,-0.084l0.169,-0.077l0.169,-0.071l0.169,-0.065l0.169,-0.058l0.169,-0.052l0.169,-0.045l0.169,-0.039l0.169,-0.032l0.169,-0.026l0.169,-0.02l0.169,-0.013l0.169,-0.007l0.169,-0l0.169,0.006l0.169,0.013l0.169,0.019l0.169,0.026l0.169,0.032l0.169,0.039l0.169,0.045l0.169,0.051l0.169,0.058l0.169,0.064l0.169,0.071l0.169,0.077l0.169,0.083l0.169,0.09l0.169,0.096l0.169,0.103l0.169,0.109l0.169,0.115l0.169,0.122l0.169,0.128l0.169,0.134l0.169,0.141l0.169,0.147l0.169,0.153l0.169,0.159l0.169,0.166l0.169,0.172l0.169,0.178l0.169,0.184l0.169,0.19l0.169,0.197l0.169,0.203l0.169,0.209l0.169,0.215l0.169,0.221l0.169,0.227l0.169,0.233l0.169,0.239l0.169,0.245l0.169,0.251l0.169,0.257l0.169,0.263l0.169,0.269l0.169,0.274l0.169,0.28l0.169,0.286l0.169,0.292l0.169,0.297l0.169,0.303l0.169,0.309l0.169,0.314l0.169,0.32l0.169,0.326l0.169,0.331l0.169,0.337l0.169,0.342l0.169,0.348l0.169,0.353l0.169,0.358l0.169,0.364l0.169,0.369l0.169,0.374l0.169,0.379l0.169,0.385l0.169,0.39l0.169,0.395l0.169,0.4l0.169,0.405l0.169,0.41l0.169,0.415l0.169,0.42l0.169,0.424l0.169,0.429l0.169,0.434l0.169,0.439l0.169,0.443l0.169,0.448l0.169,0.453l0.169,0.457l0.169,0.462l0.169,0.466l0.169,0.47l0.169,0.475l0.169,0.479l0.169,0.483l0.169,0.487l0.169,0.492l0.169,0.496l0.169,0.5l0.169,0.504l0.169,0.508l0.169,0.512l0.169,0.515l0.169,0.519l0.169,0.523l0.169,0.527l0.169,0.53l0.169,0.534l0.169,0.537l0.169,0.541l0.169,0.544l0.169,0.547l0.169,0.551l0.169,0.554l0.169,0.557l0.169,0.56l0.169,0.563l0.169,0.566l0.169,0.569l0.169,0.572l0.169,0.575l0.169,0.578l0.169,0.581l0.169,0.583l0.169,0.586l0.169,0.588l0.169,0.591l0.169,0.593l0.169,0.596l0.169,0.598l0.169,0.6l0.169,0.602l0.169,0.604l0.169,0.606l0.169,0.608l0.169,0.61l0.169,0.612l0.169,0.614l0.169,0.616l0.169,0.617l0.169,0.619l0.169,0.621l0.169,0.622l0.169,0.624l0.169,0.625l0.169,0.626l0.169,0.627l0.169,0.629l0.169,0.63l0.169,0.631l0.169,0.632l0.169,0.633l0.169,0.633l0.169,0.634l0.169,0.635l0.169,0.636l0.169,0.636l0.169,0.637l0.169,0.637l0.169,0.638l0.169,0.638l0.169,0.638l0.169,0.638l0.169,0.639l0.169,0.639l0.169,0.639l0.169,0.639l0.169,0.638l0.169,0.638l0.169,0.638l0.169,0.638l0.169,0.637l0.169,0.637l0.169,0.636l0.169,0.636l0.169,0.635l0.169,0.634l0.169,0.634l0.169,0.633l0.169,0.632l0.169,0.631l0.169,0.63l0.169,0.629l0.169,0.628l0.169,0.626l0.169,0.625l0.169,0.624l0.169,0.622l0.169,0.621l0.169,0.619l0.169,0.618l0.169,0.616l0.169,0.614l0.169,0.612l0.169,0.611l0.169,0.609l0.169,0.607l0.169,0.605l0.169,0.602l0.169,0.6l0.169,0.598l0.169,0.596l0.169,0.593l0.169,0.591l0.169,0.589l0.169,0.586l0.169,0.583l0.169,0.581l0.169,0.578l0.169,0.575l0.169,0.572l0.169,0.57l0.169,0.567l0.169,0.564l0.169,0.561l0.169,0.557l0.169,0.554l0.169,0.551l0.169,0.548l0.169,0.544l0.169,0.541l0.169,0.538l0.169,0.534l0.169,0.53l0.169,0.527l0.169,0.523l0.169,0.519l0.169,0.516l0.169,0.512l0.169,0.508l0.169,0.504l0.169,0.5l0.169,0.496l0.169,0.492l0.169,0.488l0.169,0.484l0.169,0.479l0.169,0.475l0.169,0.471l0.169,0.466l0.169,0.462l0.169,0.457l0.169,0.453l0.169,0.448l0.169,0.444l0.169,0.439l0.169,0.434l0.169,0.43l0.169,0.425l0.169,0.42l0.169,0.415l0.169,0.41l0.169,0.405l0.169,0.4l0.169,0.395l0.169,0.39l0.169,0.385l0.169,0.38l0.169,0.375l0.169,0.369l0.169,0.364l0.169,0.359l0.169,0.353l0.169,0.348l0.169,0.343l0.169,0.337l0.169,0.332l0.169,0.326l0.169,0.32l0.169,0.315l0.169,0.309l0.169,0.304l0.169,0.298l0.169,0.292l0.169,0.286l0.169,0.281l0.169,0.275l0.169,0.269l0.169,0.263l0.169,0.257l0.169,0.251l0.169,0.245l0.169,0.239l0.169,0.233l0.169,0.227l0.169,0.221l0.169,0.215l0.169,0.209l0.169,0.203l0.169,0.197l0.169,0.191l0.169,0.185l0.169,0.178l0.169,0.172l0.169,0.166l0.169,0.16l0.169,0.154l0.169,0.147l0.169,0.141l0.169,0.135l0.169,0.128l0.169,0.122l0.169,0.116l0.169,0.109l0.169,0.103l0.169,0.097l0.169,0.09l0.169,0.084l0.169,0.077l0.169,0.071l0.169,0.065l0.169,0.058l0.169,0.052l0.169,0.045l0.169,0.039l0.169,0.033l0.169,0.026l0.169,0.02l0.169,0.013l0.169,0.007l0.169,0l0.169,-0.006l0.169,-0.012l0.169,-0.019l0.169,-0.026l0.169,-0.032l0.169,-0.038l0.169,-0.045l0.169,-0.051l0.169,-0.058l0.169,-0.064l0.169,-0.07l0.169,-0.077l0.169,-0.083l0.169,-0.09l0.169,-0.096l0.169,-0.103l0.169,-0.109l0.169,-0.115l0.169,-0.122l0.169,-0.128l0.169,-0.134l0.169,-0.14l0.169,-0.147l0.169,-0.153l0.169,-0.159l0.169,-0.166l0.169,-0.172l0.169,-0.178l0.169,-0.184l0.169,-0.19l0.169,-0.196l0.169,-0.203l0.169,-0.209l0.169,-0.215l0.169,-0.221l0.169,-0.227l0.169,-0.233l0.169,-0.239l0.169,-0.245l0.169,-0.251l0.169,-0.257l0.169,-0.263l0.169,-0.268l0.169,-0.274l0.169,-0.28l0.169,-0.286l0.169,-0.292l0.169,-0.297l0.169,-0.303l0.169,-0.309l0.169,-0.314l0.169,-0.32l0.169,-0.326l0.169,-0.331l0.169,-0.337l0.169,-0.342l0.169,-0.347l0.169,-0.353l0.169,-0.358l0.169,-0.364l0.169,-0.369l0.169,-0.374l0.169,-0.379l0.169,-0.384l0.169,-0.39l0.169,-0.395l0.169,-0.4l0.169,-0.405l0.169,-0.41l0.169,-0.415l0.169,-0.42l0.169,-0.424l0.169,-0.429l0.169,-0.434l0.169,-0.439l0.169,-0.443l0.169,-0.448l0.169,-0.452l0.169,-0.457l0.169,-0.461l0.169,-0.466l0.169,-0.47l0.169,-0.475l0.169,-0.479l0.169,-0.483l0.169,-0.487l0.169,-0.491l0.169,-0.496l0.169,-0.5l0.169,-0.504l0.169,-0.508l0.169,-0.511l0.169,-0.515l0.169,-0.519l0.169,-0.523l0.169,-0.526l0.169,-0.53l0.169,-0.534l0.169,-0.537l0.169,-0.541l0.169,-0.544l0.169,-0.547l0.169,-0.551l0.169,-0.554l0.169,-0.557l0.169,-0.56l0.169,-0.563l0.169,-0.566l0.169,-0.569l0.169,-0.572l0.169,-0.575l0.169,-0.578l0.169,-0.58l0.169,-0.583l0.169,-0.586l0.169,-0.588l0.169,-0.591l0.169,-0.593l0.169,-0.596l0.169,-0.598l0.169,-0.6l0.169,-0.602l0.169,-0.604l0.169,-0.606l0.169,-0.608l0.169,-0.61l0.169,-0.612l0.169,-0.614l0.169,-0.616l0.169,-0.617l0.169,-0.619l0.169,-0.621l0.169,-0.622l0.169,-0.624l0.169,-0.625l0.169,-0.626l0.169,-0.627l0.169,-0.629l0.169,-0.63l0.169,-0.631l0.169,-0.632l0.169,-0.633l0.169,-0.633l0.169,-0.634l0.169,-0.635l0.169,-0.636l0.169,-0.636l0.169,-0.637l0.169,-0.637l0.169,-0.638l0.169,-0.638l0.169,-0.638l0.169,-0.638l0.169,-0.638l0.169,-0.639l0.169,-0.639l0.169,-0.639l0.169,-0.638l0.169,-0.638l0.169,-0.638l0.169,-0.638l0.169,-0.637l0.169,-0.637l0.169,-0.636l0.169,-0.636l0.169,-0.635l0.169,-0.634l0.169,-0.634l0.169,-0.633l0.169,-0.632l0.169,-0.631l0.169,-0.63l0.169,-0.629l0.169,-0.628l0.169,-0.626l0.169,-0.625l0.169,-0.624l0.169,-0.622l0.169,-0.621l0.169,-0.619l0.169,-0.618l0.169,-0.616l0.169,-0.614l0.169,-0.612l0.169,-0.611l0.169,-0.609l0.169,-0.607l0.169,-0.605l0.169,-0.602l0.169,-0.6l0.169,-0.598l0.169,-0.596l0.169,-0.593l0.169,-0.591l0.169,-0.589l0.169,-0.586l0.169,-0.583l0.169,-0.581l0.169,-0.578l0.169,-0.575l0.169,-0.572l0.169,-0.57l0.169,-0.567l0.169,-0.564l0.169,-0.561l0.169,-0.557l0.169,-0.554l0.169,-0.551l0.169,-0.548l0.169,-0.544l0.169,-0.541l0.169,-0.538l0.169,-0.534l0.169,-0.53l0.169,-0.527l0.169,-0.523l0.169,-0.519l0.169,-0.516l0.169,-0.512l0.169,-0.508l0.169,-0.504l0.169,-0.5l0.169,-0.496l0.169,-0.492l0.169,-0.488l0.169,-0.484l0.169,-0.479l0.169,-0.475l0.169,-0.471l0.169,-0.466l0.169,-0.462l0.169,-0.457l0.169,-0.453l0.169,-0.448l0.169,-0.444l0.169,-0.439l0.169,-0.434l0.169,-0.43l0.169,-0.425l0.169,-0.42l0.169,-0.415l0.169,-0.41l0.169,-0.405l0.169,-0.4l0.169,-0.395l0.169,-0.39l0.169,-0.385l0.169,-0.38l0.169,-0.375l0.169,-0.369l0.169,-0.364l0.169,-0.359l0.169,-0.353l0.169,-0.348l0.169,-0.343l0.169,-0.337l0.169,-0.332l0.169,-0.326l0.169,-0.321l0.169,-0.315l0.169,-0.309l0.169,-0.304l0.169,-0.298l0.169,-0.292l0.169,-0.287l0.169,-0.281l0.169,-0.275l0.169,-0.269l0.169,-0.263l0.169,-0.257l0.169,-0.251l0.169,-0.245l0.169,-0.24l0.169,-0.234l0.169,-0.228l0.169,-0.221l0.169,-0.215l0.169,-0.209l0.169,-0.203l0.169,-0.197l0.169,-0.191l0.169,-0.185l0.169,-0.179l0.169,-0.172l0.169,-0.166l0.169,-0.16l0.169,-0.154l0.169,-0.147l0.169,-0.141l0.169,-0.135l0.169,-0.129l0.169,-0.122l0.169,-0.116l0.169,-0.11l0.169,-0.103l0.169,-0.097l0.169,-0.09l0.169,-0.084l0.169,-0.078l0.169,-0.071l0.169,-0.065l0.169,-0.058l0.169,-0.052l0.169,-0.046l0.169,-0.039l0.169,-0.033l0.169,-0.026l0.169,-0.02l0.169,-0.013l0.169,-0.007l0.169,-0l0.169,0.006l0.169,0.012l0.169,0.019l0.169,0.025l0.169,0.032l0.169,0.038l0.169,0.045l0.169,0.051l0.169,0.058l0.169,0.064l0.169,0.07l0.169,0.077l0.169,0.083l0.169,0.09l0.169,0.096l0.169,0.102l0.169,0.109l0.169,0.115l0.169,0.121l0.169,0.128l0.169,0.134l0.169,0.14l0.169,0.147l0.169,0.153l0.169,0.159l0.169,0.165l0.169,0.172l0.169,0.178l0.169,0.184l0.169,0.19l0.169,0.196l0.169,0.202l0.169,0.209l0.169,0.215l0.169,0.221l0.169,0.227l0.169,0.233l0.169,0.239l0.169,0.245l0.169,0.251l0.169,0.257l0.169,0.262l0.169,0.268l0.169,0.274l0.169,0.28l0.169,0.286l0.169,0.292l0.169,0.297l0.169,0.303l0.169,0.309l0.169,0.314l0.169,0.32l0.169,0.325l0.169,0.331l0.169,0.336l0.169,0.342l0.169,0.347l0.169,0.353l0.169,0.358l0.169,0.363l0.169,0.369l0.169,0.374l0.169,0.379l0.169,0.384l0.169,0.389l0.169,0.395l0.169,0.4l0.169,0.405l0.169,0.41l0.169,0.415l0.169,0.419l0.169,0.424l0.169,0.429l0.169,0.434l0.169,0.439l0.169,0.443l0.169,0.448l0.169,0.452l0.169,0.457l0.169,0.461l0.169,0.466l0.169,0.47l0.169,0.475l0.169,0.479l0.169,0.483l0.169,0.487l0.169,0.491l0.169,0.496l0.169,0.5l0.169,0.504l0.169,0.507l0.169,0.511l0.169,0.515l0.169,0.519l0.169,0.523l0.169,0.526l0.169,0.53l0.169,0.534l0.169,0.537l0.169,0.541l0.169,0.544l0.169,0.547l0.169,0.551l0.169,0.554l0.169,0.557l0.169,0.56l0.169,0.563l0.169,0.566l0.169,0.569l0.169,0.572l0.169,0.575l0.169,0.578l0.169,0.58l0.169,0.583l0.169,0.586l0.169,0.588l0.169,0.591l0.169,0.593l0.169,0.595l0.169,0.598l0.169,0.6l0.169,0.602l0.169,0.604l0.169,0.606l0.169,0.608l0.169,0.61l0.169,0.612l0.169,0.614l0.169,0.616l0.169,0.617l0.169,0.619l0.169,0.621l0.169,0.622l0.169,0.623l0.169,0.625l0.169,0.626l0.169,0.627l0.169,0.629l0.169,0.63l0.169,0.631l0.169,0.632l0.169,0.633l0.169,0.633l0.169,0.634l0.169,0.635l0.169,0.636l0.169,0.636l0.169,0.637l0.169,0.637l0.169,0.638l0.169,0.638l0.169,0.638l0.169,0.638l0.169,0.638l0.169,0.639l0.169,0.639l0.169,0.639l0.169,0.638l0.169,0.638l0.169,0.638l0.169,0.638l0.169,0.637l0.169,0.637l0.169,0.636l0.169,0.636l0.169,0.635l0.169,0.634l0.169,0.634l0.169,0.633l0.169,0.632l0.169,0.631l0.169,0.63l0.169,0.629l0.169,0.628l0.169,0.626l0.169,0.625l0.169,0.624l0.169,0.622l0.169,0.621l0.169,0.619l0.169,0.618l0.169,0.616l0.169,0.614l0.169,0.612l0.169,0.611l0.169,0.609l0.169,0.607l0.169,0.605l0.169,0.603l0.169,0.6l0.169,0.598l0.169,0.596l0.169,0.593l0.169,0.591l0.169,0.589l0.169,0.586l0.169,0.583l0.169,0.581l0.169,0.578l0.169,0.575l0.169,0.573l0.169,0.57l0.169,0.567l0.169,0.564l0.169,0.561l0.169,0.558l0.169,0.554l0.169,0.551l0.169,0.548l0.169,0.544l0.169,0.541l0.169,0.538l0.169,0.534l0.169,0.531l0.169,0.527l0.169,0.523l0.169,0.52l0.169,0.516l0.169,0.512l0.169,0.508l0.169,0.504l0.169,0.5l0.169,0.496l0.169,0.492l0.169,0.488l0.169,0.484l0.169,0.479l0.169,0.475l0.169,0.471l0.169,0.466l0.169,0.462l0.169,0.458l0.169,0.453l0.169,0.448l0.169,0.444l0.169,0.439l0.169,0.434l0.169,0.43l0.169,0.425l0.169,0.42l0.169,0.415l0.169,0.41l0.169,0.405l0.169,0.4l0.169,0.395l0.169,0.39l0.169,0.385l0.169,0.38l0.169,0.375l0.169,0.369l0.169,0.364l0.169,0.359l0.169,0.353l0.169,0.348l0.169,0.343l0.169,0.337l0.169,0.332l0.169,0.326l0.169,0.321l0.169,0.315l0.169,0.309l0.169,0.304l0.169,0.298l0.169,0.292l0.169,0.287l0.169,0.281l0.169,0.275l0.169,0.269l0.169,0.263l0.169,0.257l0.169,0.252l0.169,0.246l0.169,0.24l0.169,0.234l0.169,0.228l0.169,0.222l0.169,0.215l0.169,0.209l0.169,0.203l0.169,0.197l0.169,0.191l0.169,0.185l0.169,0.179l0.169,0.173l0.169,0.166l0.169,0.16l0.169,0.154l0.169,0.148l0.169,0.141l0.169,0.135l0.169,0.129l0.169,0.122l0.169,0.116l0.169,0.11l0.169,0.103l0.169,0.097l0.169,0.091l0.169,0.084l0.169,0.078l0.169,0.071l0.169,0.065l0.169,0.058l0.169,0.052l0.169,0.046l0.169,0.039l0.169,0.033l0.169,0.026l0.169,0.02l0.169,0.013l0.169,0.007l0.169,0l0.169,-0.006l0.169,-0.012l0.169,-0.019l0.169,-0.025l0.169,-0.032l0.169,-0.038l0.169,-0.045l0.169,-0.051l0.169,-0.057l0.169,-0.064l0.169,-0.07l0.169,-0.077l0.169,-0.083l0.169,-0.089l0.169,-0.096l0.169,-0.102l0.169,-0.109l0.169,-0.115l0.169,-0.121l0.169,-0.128l0.169,-0.134l0.169,-0.14l0.169,-0.147l0.169,-0.153l0.169,-0.159l0.169,-0.165l0.169,-0.171l0.169,-0.178l0.169,-0.184l0.169,-0.19l0.169,-0.196l0.169,-0.202l0.169,-0.208l0.169,-0.215l0.169,-0.221l0.169,-0.227l0.169,-0.233l0.169,-0.239l0.169,-0.245l0.169,-0.251l0.169,-0.256l0.169,-0.262l0.169,-0.268l0.169,-0.274l0.169,-0.28l0.169,-0.286l0.169,-0.291l0.169,-0.297l0.169,-0.303l0.169,-0.308l0.169,-0.314l0.169,-0.32l0.169,-0.325l0.169,-0.331l0.169,-0.336l0.169,-0.342l0.169,-0.347l0.169,-0.353l0.169,-0.358l0.169,-0.363l0.169,-0.369l0.169,-0.374l0.169,-0.379l0.169,-0.384l0.169,-0.389l0.169,-0.394l0.169,-0.4l0.169,-0.405l0.169,-0.409l0.169,-0.414l0.169,-0.419l0.169,-0.424l0.169,-0.429l0.169,-0.434l0.169,-0.438l0.169,-0.443l0.169,-0.448l0.169,-0.452l0.169,-0.457l0.169,-0.461l0.169,-0.466l0.169,-0.47l0.169,-0.474l0.169,-0.479l0.169,-0.483l0.169,-0.487l0.169,-0.491l0.169,-0.495l0.169,-0.5l0.169,-0.503l0.169,-0.507l0.169,-0.511l0.169,-0.515l0.169,-0.519l0.169,-0.523l0.169,-0.526l0.169,-0.53l0.169,-0.534l0.169,-0.537l0.169,-0.541l0.169,-0.544l0.169,-0.547l0.169,-0.551l0.169,-0.554l0.169,-0.557l0.169,-0.56l0.169,-0.563l0.169,-0.566l0.169,-0.569l0.169,-0.572l0.169,-0.575l0.169,-0.578l0.169,-0.58l0.169,-0.583l0.169,-0.586l0.169,-0.588l0.169,-0.591l0.169,-0.593l0.169,-0.595l0.169,-0.598l0.169,-0.6l0.169,-0.602l0.169,-0.604l0.169,-0.606l0.169,-0.608l0.169,-0.61l0.169,-0.612l0.169,-0.614l0.169,-0.616l0.169,-0.617l0.169,-0.619l0.169,-0.621l0.169,-0.622l0.169,-0.623l0.169,-0.625l0.169,-0.626l0.169,-0.627l0.169,-0.629l0.169,-0.63" style="fill:#eee;fill-opacity:0;fill-rule:nonzero;stroke:#eee;stroke-width:20.19px;"/></svg>
