<?xml version="1.0" encoding="UTF-8" standalone="no"?><!DOCTYPE svg PUBLIC "-//W3C//DTD SVG 1.1//EN" "http://www.w3.org/Graphics/SVG/1.1/DTD/svg11.dtd"><svg height="100px" viewBox="0 0 1032 313" version="1.1" xmlns="http://www.w3.org/2000/svg" xmlns:xlink="http://www.w3.org/1999/xlink" xml:space="preserve" xmlns:serif="http://www.serif.com/" style="fill-rule:evenodd;clip-rule:evenodd;stroke-linejoin:round;stroke-miterlimit:2;"><path d="M1031.25,62.5l0,187.5c0,34.495 -28.005,62.5 -62.5,62.5l-906.25,0c-34.495,0 -62.5,-28.005 -62.5,-62.5l0,-187.5c0,-34.495 28.005,-62.5 62.5,-62.5l906.25,0c34.495,0 62.5,28.005 62.5,62.5Z" style="fill:#eee;"/><g id="Stripe-Logo" serif:id="Stripe Logo"><path id="_3" serif:id="3" d="M243.255,156.25l49.095,0l-62.581,108.394l-49.095,0l62.581,-108.394Z" style="fill:#ed3023;fill-rule:nonzero;"/><path id="_2" serif:id="2" d="M46.875,156.25l62.581,-108.394l49.095,0l-62.581,108.394l-49.095,0Z" style="fill:#ed3023;fill-rule:nonzero;"/><path id="_1" serif:id="1" d="M256.741,47.856l-125.163,216.788l-49.095,0l125.163,-216.788l49.095,0Z" style="fill:#ed3023;fill-rule:nonzero;"/></g><g><path d="M345.685,264.644c-12.008,0 -18.013,-3.871 -18.013,-11.613l0,-20.322c0,-8.182 6.004,-12.272 18.013,-12.272c4.091,0 8.006,0.418 11.744,1.254l0,4.751c-4.223,-1.056 -8.094,-1.584 -11.613,-1.584c-1.715,0 -3.211,0.099 -4.487,0.297c-1.276,0.198 -2.507,0.539 -3.695,1.023c-2.551,1.1 -3.827,3.255 -3.827,6.466l0,20.058c0,4.927 4.091,7.39 12.272,7.39c3.519,0 7.39,-0.528 11.613,-1.584l0,4.883c-3.739,0.836 -7.742,1.254 -12.008,1.254Z" style="fill-rule:nonzero;"/><path d="M382.964,264.644c-11.964,0 -17.947,-3.871 -17.947,-11.613l0,-20.256c0,-8.182 5.982,-12.272 17.947,-12.272c12.096,0 18.145,4.069 18.145,12.206l0,20.322c0,4.135 -1.672,7.104 -5.015,8.907c-3.343,1.803 -7.72,2.705 -13.13,2.705Zm0.132,-4.289c7.874,0 11.81,-2.463 11.81,-7.39l0,-20.388c0,-5.278 -3.959,-7.918 -11.876,-7.918c-3.827,0 -6.763,0.594 -8.808,1.781c-2.045,1.188 -3.068,3.233 -3.068,6.136l0,20.388c0,4.927 3.981,7.39 11.942,7.39Z" style="fill-rule:nonzero;"/><path d="M411.006,221.163l9.567,0l13.724,35.629l0.198,0.066l12.998,-35.695l9.237,0l0,42.821l-5.608,0l0,-36.223l-0.33,0l-13.79,36.223l-5.74,0l-14.186,-36.223l-0.33,0l0,36.223l-5.74,0l0,-42.821Z" style="fill-rule:nonzero;"/><path d="M467.815,221.163l9.567,0l13.724,35.629l0.198,0.066l12.998,-35.695l9.237,0l0,42.821l-5.608,0l0,-36.223l-0.33,0l-13.79,36.223l-5.74,0l-14.186,-36.223l-0.33,0l0,36.223l-5.74,0l0,-42.821Z" style="fill-rule:nonzero;"/><path d="M541.317,264.644c-2.331,0 -4.366,-0.154 -6.103,-0.462c-1.737,-0.308 -3.442,-0.836 -5.113,-1.584c-1.759,-0.792 -3.112,-2.001 -4.058,-3.629c-0.946,-1.628 -1.419,-3.607 -1.419,-5.938l0,-31.868l6.136,0l0,31.803c0,2.683 0.902,4.586 2.705,5.707c1.803,1.122 4.465,1.682 7.984,1.682c3.519,0 6.147,-0.561 7.885,-1.682c1.737,-1.122 2.606,-3.024 2.606,-5.707l0,-31.803l6.136,0l0,31.868c0,7.742 -5.586,11.613 -16.759,11.613Z" style="fill-rule:nonzero;"/><path d="M569.227,221.163l7.72,0l23.291,35.365l0,-35.365l5.608,0l0,42.821l-7.72,0l-23.291,-35.959l0,35.959l-5.608,0l0,-42.821Z" style="fill-rule:nonzero;"/><rect x="616.931" y="221.163" width="6.4" height="42.821" style="fill-rule:nonzero;"/><path d="M644.972,225.65l-14.516,0l0,-4.487l35.431,0l0,4.487l-14.45,0l0,38.335l-6.466,0l0,-38.335Z" style="fill-rule:nonzero;"/><path d="M683.505,246.697l-15.505,-25.534l7.324,0l11.415,20.124l11.415,-20.124l7.324,0l-15.571,25.336l0,17.485l-6.4,0l0,-17.287Z" style="fill-rule:nonzero;"/><path d="M726.722,221.163l13.988,0c1.979,0 3.574,0.044 4.784,0.132c1.21,0.088 2.496,0.286 3.86,0.594c1.408,0.308 2.54,0.77 3.398,1.386c0.858,0.616 1.595,1.452 2.21,2.507c0.572,1.012 0.858,2.287 0.858,3.827l0,8.907c0,3.563 -1.375,6.125 -4.124,7.687c-2.749,1.562 -6.807,2.342 -12.173,2.342l-6.4,0l0,15.439l-6.4,0l0,-42.821Zm13.658,23.357c2.771,0 4.993,-0.506 6.664,-1.518c1.672,-1.012 2.507,-2.617 2.507,-4.817l0,-7.786c0,-1.188 -0.308,-2.166 -0.924,-2.936c-0.616,-0.77 -1.496,-1.309 -2.639,-1.617c-1.1,-0.264 -2.023,-0.44 -2.771,-0.528c-0.748,-0.088 -1.737,-0.132 -2.969,-0.132l-7.192,0l0,19.332l7.324,0Z" style="fill-rule:nonzero;"/><path d="M764.331,221.163l15.044,0c3.783,0 6.741,0.231 8.874,0.693c2.133,0.462 3.695,1.287 4.685,2.474c0.99,1.188 1.485,2.925 1.485,5.212l0,7.39c0,2.551 -1.045,4.52 -3.134,5.905c-2.089,1.386 -4.74,2.078 -7.951,2.078l13.724,19.068l-7.852,0l-12.272,-18.277l-6.202,0l0,18.277l-6.4,0l0,-42.821Zm14.78,20.322c3.167,0 5.443,-0.385 6.829,-1.155c1.386,-0.77 2.078,-2.166 2.078,-4.19l0,-5.938c0,-3.211 -2.771,-4.817 -8.314,-4.817l-8.973,0l0,16.099l8.38,0Z" style="fill-rule:nonzero;"/><path d="M822.789,264.644c-11.964,0 -17.947,-3.871 -17.947,-11.613l0,-20.256c0,-8.182 5.982,-12.272 17.947,-12.272c12.096,0 18.145,4.069 18.145,12.206l0,20.322c0,4.135 -1.672,7.104 -5.015,8.907c-3.343,1.803 -7.72,2.705 -13.13,2.705Zm0.132,-4.289c7.874,0 11.81,-2.463 11.81,-7.39l0,-20.388c0,-5.278 -3.959,-7.918 -11.876,-7.918c-3.827,0 -6.763,0.594 -8.808,1.781c-2.045,1.188 -3.068,3.233 -3.068,6.136l0,20.388c0,4.927 3.981,7.39 11.942,7.39Z" style="fill-rule:nonzero;"/><path d="M854.46,264.644c-3.519,0 -6.136,-0.242 -7.852,-0.726l0,-4.289c2.639,0.704 4.993,1.056 7.06,1.056c1.715,0 3.013,-0.154 3.893,-0.462c0.88,-0.308 1.496,-0.869 1.847,-1.682c0.352,-0.814 0.528,-2.056 0.528,-3.728l0,-33.65l6.4,0l0,33.386c0,2.727 -0.396,4.806 -1.188,6.235c-0.792,1.43 -2.023,2.43 -3.695,3.002c-1.672,0.572 -4.003,0.858 -6.994,0.858Z" style="fill-rule:nonzero;"/><path d="M877.421,221.163l28.767,0l0,4.487l-22.367,0l0,13.988l20.19,0l0,4.487l-20.19,0l0,15.373l23.027,0l0,4.487l-29.427,0l0,-42.821Z" style="fill-rule:nonzero;"/><path d="M932.383,264.644c-12.008,0 -18.013,-3.871 -18.013,-11.613l0,-20.322c0,-8.182 6.004,-12.272 18.013,-12.272c4.091,0 8.006,0.418 11.744,1.254l0,4.751c-4.223,-1.056 -8.094,-1.584 -11.613,-1.584c-1.715,0 -3.211,0.099 -4.487,0.297c-1.276,0.198 -2.507,0.539 -3.695,1.023c-2.551,1.1 -3.827,3.255 -3.827,6.466l0,20.058c0,4.927 4.091,7.39 12.272,7.39c3.519,0 7.39,-0.528 11.613,-1.584l0,4.883c-3.739,0.836 -7.742,1.254 -12.008,1.254Z" style="fill-rule:nonzero;"/><path d="M963.459,225.65l-14.516,0l0,-4.487l35.431,0l0,4.487l-14.45,0l0,38.335l-6.466,0l0,-38.335Z" style="fill-rule:nonzero;"/></g><g id="VORON"><path id="V" d="M348.548,49.724l19.017,0l39.164,104.035l1.695,0l39.164,-104.035l18.076,0l-48.579,121.218l-21.088,0l-47.449,-121.218Z"/><path id="O1" d="M532.13,172.809c-34.143,0 -51.215,-10.958 -51.215,-32.873l0,-57.34c0,-23.16 17.072,-34.74 51.215,-34.74c34.52,0 51.779,11.518 51.779,34.554l0,57.527c0,11.705 -4.77,20.11 -14.31,25.215c-9.54,5.105 -22.03,7.658 -37.469,7.658Zm0.377,-12.14c22.469,0 33.704,-6.973 33.704,-20.919l0,-57.714c0,-14.942 -11.297,-22.413 -33.892,-22.413c-10.921,0 -19.331,1.681 -25.231,5.043c-5.774,3.362 -8.661,9.152 -8.661,17.37l0,57.714c0,13.946 11.36,20.919 34.08,20.919Z"/><path id="R" d="M612.153,49.724l42.93,0c10.795,0 19.205,0.685 25.231,2.055c6.151,1.245 10.607,3.549 13.369,6.911c2.887,3.362 4.331,8.28 4.331,14.755l0,20.919c0,7.222 -3.013,12.825 -9.038,16.81c-5.9,3.86 -13.431,5.79 -22.595,5.79l39.164,53.978l-22.406,0l-35.022,-51.737l-17.699,0l0,51.737l-18.264,0l-0,-121.218Zm42.177,57.527c9.038,0 15.502,-1.058 19.394,-3.175c4.017,-2.241 6.025,-6.226 6.025,-11.954l0,-16.81c0,-9.09 -7.908,-13.635 -23.724,-13.635l-25.607,0l0,45.573l23.913,-0Z"/><path id="O2" d="M778.977,172.809c-34.143,0 -51.215,-10.958 -51.215,-32.873l0,-57.34c0,-23.16 17.072,-34.74 51.215,-34.74c34.52,0 51.779,11.518 51.779,34.554l0,57.527c0,11.705 -4.77,20.11 -14.31,25.215c-9.54,5.105 -22.03,7.658 -37.469,7.658Zm0.377,-12.14c22.469,0 33.704,-6.973 33.704,-20.919l0,-57.714c0,-14.942 -11.297,-22.413 -33.892,-22.413c-10.921,0 -19.331,1.681 -25.231,5.043c-5.774,3.362 -8.661,9.152 -8.661,17.37l0,57.714c0,13.946 11.36,20.919 34.08,20.919Z"/><path id="N" d="M859,49.724l22.03,0l66.466,100.112l0,-100.112l16.005,0l0,121.218l-22.03,0l-66.466,-101.793l0,101.793l-16.005,0l0,-121.218Z"/></g></svg>
